<svg width="18" height="16" viewBox="0 0 18 16" fill="none" xmlns="http://www.w3.org/2000/svg">
<path d="M12.7501 0.5C11.3001 0.5 9.90842 1.175 9.00008 2.24167C8.09175 1.175 6.70008 0.5 5.25008 0.5C2.68341 0.5 0.666748 2.51667 0.666748 5.08333C0.666748 8.23333 3.50008 10.8 7.79175 14.7L9.00008 15.7917L10.2084 14.6917C14.5001 10.8 17.3334 8.23333 17.3334 5.08333C17.3334 2.51667 15.3167 0.5 12.7501 0.5Z" fill="#7FAD39"/>
<path d="M12.7501 0.5C11.3001 0.5 9.90842 1.175 9.00008 2.24167C8.09175 1.175 6.70008 0.5 5.25008 0.5C2.68341 0.5 0.666748 2.51667 0.666748 5.08333C0.666748 8.23333 3.50008 10.8 7.79175 14.7L9.00008 15.7917L10.2084 14.6917C14.5001 10.8 17.3334 8.23333 17.3334 5.08333C17.3334 2.51667 15.3167 0.5 12.7501 0.5Z" fill="#7FAD39"/>
</svg>
