<svg width="0" height="0" class="hidden">

  <symbol xmlns="http://www.w3.org/2000/svg" viewBox="0 0 24 24" id="email_top">
    <path d="M22 6C22 4.9 21.1 4 20 4H4C2.9 4 2 4.9 2 6V18C2 19.1 2.9 20 4 20H20C21.1 20 22 19.1 22 18V6ZM20 6L12 11L4 6H20ZM20 18H4V8L12 13L20 8V18Z" ></path>
  </symbol>

 <symbol xmlns="http://www.w3.org/2000/svg" viewBox="0 0 18 18" id="facebook_top">
    <path d="M15.3633 0H2.63672C1.18295 0 0 1.18295 0 2.63672V15.3633C0 16.817 1.18295 18 2.63672 18H7.94531V11.6367H5.83594V8.47266H7.94531V6.32812C7.94531 4.58336 9.36461 3.16406 11.1094 3.16406H14.3086V6.32812H11.1094V8.47266H14.3086L13.7812 11.6367H11.1094V18H15.3633C16.817 18 18 16.817 18 15.3633V2.63672C18 1.18295 16.817 0 15.3633 0Z" ></path>
 </symbol>

  <symbol  xmlns="http://www.w3.org/2000/svg" viewBox="0 0 18 18" id="wathapp_top">
    <path d="M9 0C4.0567 0 0 4.0567 0 9C0 10.6315 0.439865 12.2197 1.274 13.6092L0 18L4.39082 16.726C5.78032 17.5601 7.36853 18 9 18C13.9433 18 18 13.9433 18 9C18 4.0567 13.9433 0 9 0ZM14.6269 12.8028L14.2082 13.2215C13.6158 13.8139 12.2533 13.767 11.3779 13.5979C8.46689 13.0357 5.07307 9.74611 4.41856 6.89735C4.09447 5.48616 4.27341 4.25926 4.74142 3.79111L5.16014 3.37239C5.39127 3.1414 5.76672 3.14168 5.99757 3.37239L7.67271 5.04767C7.7845 5.15945 7.84575 5.30763 7.84575 5.46625C7.84575 5.62486 7.7845 5.77318 7.67271 5.88455L7.25414 6.30368C6.79271 6.7662 6.79271 7.51753 7.25414 7.97896L10.0204 10.7088C10.4832 11.1716 11.2321 11.1721 11.6956 10.7088L12.1143 10.2902C12.3305 10.0728 12.7343 10.0721 12.9522 10.2902L14.6269 11.9649C14.8543 12.1914 14.863 12.5666 14.6269 12.8028Z" ></path>
 </symbol>

 <symbol  xmlns="http://www.w3.org/2000/svg" viewBox="0 0 18 18" id="in_top">
    <path d="M15.3633 0H2.63672C1.18295 0 0 1.18295 0 2.63672V15.3633C0 16.817 1.18295 18 2.63672 18H15.3633C16.817 18 18 16.817 18 15.3633V2.63672C18 1.18295 16.817 0 15.3633 0ZM6.36328 14.2734H4.25391V6.89062H6.36328V14.2734ZM6.36328 5.83594H4.25391V3.72656H6.36328V5.83594ZM13.7461 14.2734H11.6367V10.0547C11.6367 9.47324 11.1635 9 10.582 9C10.0006 9 9.52734 9.47324 9.52734 10.0547V14.2734H7.41797V6.89062H9.52734V7.28819C10.08 7.11639 10.4389 6.89062 11.1094 6.89062C12.5399 6.89214 13.7461 8.17548 13.7461 9.69214V14.2734Z" ></path>
 </symbol>

 <symbol  xmlns="http://www.w3.org/2000/svg" viewBox="0 0 18 18" id="twit_top">
    <g clip-path="url(#clip0_202:20)">
      <path d="M6.71526 16.3843C5.93687 16.3843 5.1357 16.3213 4.32971 16.1949C2.91014 15.9722 1.47313 15.2296 1.0665 15.0073L0 14.4242L1.15466 14.0445C2.41686 13.6295 3.18466 13.372 4.13512 12.9688C3.18343 12.5079 2.44995 11.6789 2.09688 10.6071L1.82826 9.79168L2.04854 9.82533C1.83966 9.6148 1.67473 9.40112 1.54688 9.2068C1.09218 8.51617 0.851441 7.67228 0.902664 6.94911L0.953201 6.23733L1.37933 6.4024C1.19957 6.06292 1.06966 5.70037 0.993302 5.32038C0.807221 4.39369 0.962952 3.40917 1.43193 2.54826L1.80313 1.86683L2.29958 2.46311C3.86966 4.34919 5.85832 5.46801 8.2186 5.79554C8.12219 5.13101 8.19443 4.48968 8.43352 3.91482C8.71188 3.24548 9.20709 2.6779 9.86517 2.27333C10.596 1.82412 11.4824 1.60646 12.3609 1.66043C13.2929 1.71769 14.1391 2.06692 14.8112 2.67103C15.1394 2.58575 15.3813 2.4947 15.7081 2.37165C15.9048 2.29763 16.1278 2.21359 16.4068 2.11746L17.4352 1.76315L16.7646 3.67834C16.8088 3.67463 16.8544 3.67147 16.9021 3.66941L18.0001 3.6197L17.3511 4.50671C17.3139 4.55752 17.3044 4.57194 17.2912 4.59185C17.2389 4.67068 17.1738 4.76873 16.283 5.95828C16.06 6.25614 15.9486 6.6441 15.9693 7.05087C16.0483 8.59664 15.8586 9.9952 15.4053 11.2075C14.9766 12.3545 14.3122 13.3386 13.4308 14.1325C12.3401 15.1147 10.9494 15.7872 9.29704 16.1311C8.48653 16.2997 7.61614 16.3843 6.71526 16.3843Z" ></path>
    </g>
    <defs>
      <clipPath id="clip0_202:20">
        <rect width="18.0001" height="18" ></rect>
      </clipPath>
    </defs>
  </symbol>

</svg>